PathFileType	4	(X/Y/Z)	Patient4_TMGait_0pt6_01_right_03.trc.trc
DataRate	CameraRate	NumFrames	NumMarkers	Units	OrigDataRate	OrigDataStartFrame	OrigNumFrames
84.337349397590	84.337349397590	5	33	mm	84.337349397590	89	       141
Frame#	Time	Sacral			L.Shoulder			Chest			R.Shoulder			Neck			R.ASIS			L.ASIS			R.Thigh.Superior			R.Thigh.Lateral			R.Thigh.Inferior			R.Patella			L.Thigh.Superior			L.Thigh.Lateral			L.Thigh.Inferior			L.Patella			L.Shank.Superior			L.Shank.Lateral			L.Shank.Inferior			R.Shank.Superior			R.Shank.Lateral			R.Shank.Inferior			R.Heel			R.Midfoot.Superior			R.Midfoot.Lateral			R.Toe			L.Heel			L.Midfoot.Lateral			L.Midfoot.Superior			L.Toe			L.Elbow			L.Wrist			R.Elbow			R.Wrist			
		X1	Y1	Z1	X2	Y2	Z2	X3	Y3	Z3	X4	Y4	Z4	X5	Y5	Z5	X6	Y6	Z6	X7	Y7	Z7	X8	Y8	Z8	X9	Y9	Z9	X10	Y10	Z10	X11	Y11	Z11	X12	Y12	Z12	X13	Y13	Z13	X14	Y14	Z14	X15	Y15	Z15	X16	Y16	Z16	X17	Y17	Z17	X18	Y18	Z18	X19	Y19	Z19	X20	Y20	Z20	X21	Y21	Z21	X22	Y22	Z22	X23	Y23	Z23	X24	Y24	Z24	X25	Y25	Z25	X26	Y26	Z26	X27	Y27	Z27	X28	Y28	Z28	X29	Y29	Z29	X30	Y30	Z30	X31	Y31	Z31	X32	Y32	Z32	X33	Y33	Z33	

89	4.053428571429	614.815561974536	1003.372705970831	449.680702812750	759.373263319133	1429.133428325808	252.170879363935	880.787236290522	1366.614012584495	402.960369491928	811.723886975339	1443.339651979049	580.016308614310	759.615822684347	1492.475197899105	402.168969383548	846.819416596173	936.005830487020	553.076715760911	819.826407733877	965.710794917982	272.072858557009	890.880220070787	734.364147084701	528.516995386663	816.015234416128	622.914345594286	594.139285757070	898.045335751553	566.326460795916	518.911007692468	889.941377960691	455.293586729427	537.909510198132	886.489141952617	759.746328896264	310.070152751812	808.963725731692	636.822375799634	254.436917429400	901.312353106197	567.818162573641	317.676224064431	908.098861796987	498.434386846170	327.535582607549	887.928062979082	424.845276089005	319.958790938118	808.239416224937	302.337481338428	273.519450714329	871.298144118078	197.389171102033	344.239334181257	810.367581867486	389.182098920330	540.342575038352	688.171236794447	351.698246722897	599.897399399805	668.998099150446	245.973903391160	544.909334785179	464.044118507783	189.081642750646	512.999373393048	631.353413648134	129.488370544028	555.515832814198	521.747544508150	130.274123349677	587.024939602091	694.817037315948	29.314132912770	583.037679601375	755.931439709799	37.596328569038	392.523943491223	826.173974663369	34.888468636587	308.062280096322	909.478426773291	97.250352794800	330.846901686814	1036.727613931253	48.176357849084	297.134342050576	804.771760687678	1077.911905681111	135.614320657277	1014.060507077441	941.363392281939	210.834076880944	951.434845296873	1126.278702483792	686.367004727775	1187.569035859443	1150.062423455617	597.368113459431	
90	4.065285714286	614.366116588637	1003.616476410070	447.136897222120	760.174378833591	1429.923468098356	250.567931616504	880.381348088432	1367.461440917802	402.353565435140	809.689630021150	1443.622337649035	579.049884404425	759.050715077556	1493.133438608058	400.736721111571	846.214065958607	936.850116621328	551.691282011723	820.164636307683	966.055720435592	269.923807756639	895.111539828025	737.605846718684	527.376383846715	823.093110107465	624.882321818498	593.322497567345	906.776759881693	569.776458904495	518.325136627999	900.351230066880	457.806983356867	537.510736443762	885.407190661782	759.072135347649	308.368719563677	806.908827962788	636.826985574754	253.170859691380	898.347283945149	567.096471525938	316.767085198857	904.483888948885	497.722945904168	326.837707417171	883.795676034273	424.233887174718	319.371534465622	803.334197395781	302.250004164246	272.997747196022	865.194057590579	196.962911798049	344.104186796349	819.516268923270	392.046011979837	539.866384359467	696.222222220679	357.602634466245	599.093306040650	674.898676347796	252.107021476771	544.632702092462	469.431912024248	203.030387178061	512.108357110131	633.588761752514	134.886005527031	555.348654940216	523.737074631112	140.951941577791	586.218792101126	691.605523957946	29.143566253341	582.965853807468	748.775003153313	37.578587279061	392.465992622191	819.019912457253	34.828127388808	308.028486877956	902.431070914564	97.098677244719	330.893515811829	1029.665643797678	47.793848792697	297.124369176223	812.933153669065	1080.627869661431	133.125809549281	1027.624893214623	955.813145262695	211.992693617197	940.818240319060	1121.543958202893	685.531739489916	1179.936128832788	1127.146460786100	599.376416303109	
91	4.077142857143	613.845238991221	1003.857260470713	444.747322505640	760.916216208780	1430.727314018905	249.158541963372	879.945634605986	1368.231312409525	401.863022975039	807.710110479085	1443.764681502255	578.241203999468	758.488833804301	1493.758947200844	399.524075413335	845.501839975494	937.691440995170	550.330296020417	820.568155938531	966.072362210340	268.234061520175	899.003721943346	740.968476243022	526.116390933606	829.949260631049	627.094186731641	592.463360075821	915.023653461638	573.535433321946	517.490703268889	910.497503415940	460.721645493504	536.817508967766	884.333766663895	758.451495510128	306.883422343095	804.896350338649	636.826396208830	252.013629587838	895.445177203554	566.396616571705	315.943442992431	900.934375723632	497.009367433242	326.210413303207	879.717570462398	423.617481966998	318.851453853546	798.463575559413	302.180428613022	272.504503472561	859.126433093802	196.538755955628	343.976766806792	828.586414764288	395.160964467300	539.201857792117	704.434640035837	363.340505758595	598.181563505607	681.237353368888	258.103411100415	544.212589111442	475.600273201418	215.770310521495	511.259089709003	636.735139821463	140.333580494659	554.988674177093	526.872739740559	150.898412263134	585.361723364399	689.948546902191	29.583968717111	582.602043590671	741.619505719959	37.573690926296	392.396509272642	811.871208927705	34.776640725039	307.989616783805	895.394561506047	96.958400831450	330.934252684220	1022.608907406507	47.404566584692	297.115784355171	821.257182881912	1083.661603586496	130.749023202529	1040.967908227194	971.507301734439	213.162373301590	930.303659045103	1117.061774248048	684.745467349537	1171.020914847992	1103.811345156885	601.794054204191	
92	4.089000000000	613.263241793963	1004.127806026693	442.508496427629	761.603515439114	1431.564546333244	247.942417154390	879.491980319680	1368.933782049585	401.475699312382	805.820569077058	1443.808228740685	577.570051950977	757.948234240640	1494.365090734630	398.520261233117	844.670840188532	938.551074386375	549.002117228184	821.056317136749	965.824705958352	267.048349077456	902.506869693585	744.436888677304	524.706420282220	836.551189467099	629.535072914842	591.550039656677	922.751824819104	577.572541462203	516.396396519344	920.348814492539	464.008943379085	535.859339647468	883.285863990052	757.875507535752	305.613802329255	802.906553551638	636.818320266197	250.994071252995	892.591648469224	565.710143220319	315.227049329066	897.439691725891	496.295611016551	325.694624838018	875.684052970760	423.003038965158	318.427388348623	793.624448984568	302.137159517960	272.060977879910	853.089630326297	196.123470942310	343.875450126871	837.559872700972	398.484633258226	538.375902146046	712.770753091884	368.807087807618	597.184049759514	688.029718635921	263.820019937635	543.671239110589	482.440731362919	226.933181547721	510.520227650600	640.929235356442	145.653133858213	554.433876185559	531.222399225758	159.781734751323	584.498068579242	690.190147946108	30.692212831664	581.884753870587	734.464138510298	37.579495291900	392.319641036387	804.727492535226	34.738643703439	307.948483666473	888.362171662807	96.834551368847	330.974468144776	1015.551426093791	47.028947461414	297.108991044579	829.716372812607	1087.039756418113	128.494602638439	1053.926441137339	988.404209531846	214.335720168735	919.971140547472	1112.866888823818	683.981295910586	1160.766964542503	1080.270064732734	604.623064220617	
93	4.100857142857	612.632865903035	1004.450667453648	440.411325523573	762.251021689790	1432.446233266509	246.910525017248	879.033347773535	1369.577402258370	401.180083130910	804.042914389158	1443.794611106339	577.013646186558	757.445942234919	1494.960781974696	397.704819886426	843.714376196234	939.442368527818	547.724769926844	821.606095816888	965.408100574150	266.361871923499	905.597197693837	747.995508952186	523.146578107264	842.873521949188	632.183653071354	590.582779810166	929.951500615513	581.851661845282	515.059852313562	929.881387744686	467.638645456325	534.675140244892	882.256677981648	757.326062105571	304.558053366129	800.912378247469	636.800361200807	250.127039953362	889.754651295606	565.027085413562	314.635215531213	893.967280889334	495.581049915882	325.317345119076	871.667609733924	422.395791506632	318.116886470272	788.800915977166	302.121848913608	271.680516270740	847.069959738860	195.722252405735	343.812991879534	846.432543373385	401.970285528678	537.418763812106	721.211671380537	373.894159967273	596.131820431370	695.306107561983	269.112507358162	543.035105924721	489.873458776104	236.216933703544	509.944138749138	646.303154727238	150.659323119076	553.705871002365	536.841357309774	167.317997684929	583.673054542240	692.618316000935	32.426845907371	580.801555928627	727.306930900844	37.593486448380	392.240364738250	797.587414715482	34.716169516070	307.907953685215	881.327649469224	96.729014404267	331.018338800543	1008.488141410181	46.679687887749	297.105013978657	838.278577877196	1090.777627995790	126.367176791271	1066.340731389728	1006.426552638962	215.506779282122	909.896066940109	1108.991451540077	683.209918745875	1149.148292364147	1056.756072508663	607.854360457872	
